%TF.GenerationSoftware,KiCad,Pcbnew,9.0.6*%
%TF.CreationDate,2026-06-21T20:46:30+02:00*%
%TF.ProjectId,test,74657374-2e6b-4696-9361-645f70636258,rev?*%
%TF.SameCoordinates,Original*%
%TF.FileFunction,Soldermask,Bot*%
%TF.FilePolarity,Negative*%
%FSLAX46Y46*%
G04 Gerber Fmt 4.6, Leading zero omitted, Abs format (unit mm)*
G04 Created by KiCad (PCBNEW 9.0.6) date 2026-06-21 20:46:30*
%MOMM*%
%LPD*%
G01*
G04 APERTURE LIST*
%ADD10C,1.400000*%
%ADD11O,1.900000X3.200000*%
%ADD12R,1.600000X1.600000*%
%ADD13O,1.600000X1.600000*%
%ADD14R,1.700000X1.700000*%
%ADD15C,1.700000*%
G04 APERTURE END LIST*
D10*
%TO.C,R5*%
X141260000Y-66920000D03*
X141260000Y-72000000D03*
%TD*%
D11*
%TO.C,SW5_A1*%
X164500000Y-91000000D03*
X164500000Y-78500000D03*
X169500000Y-91000000D03*
X169500000Y-78500000D03*
%TD*%
%TO.C,SW1_UP1*%
X118000000Y-82500000D03*
X118000000Y-70000000D03*
X123000000Y-82500000D03*
X123000000Y-70000000D03*
%TD*%
D10*
%TO.C,R8*%
X146260000Y-61080000D03*
X146260000Y-56000000D03*
%TD*%
D12*
%TO.C,A1*%
X149800000Y-113740000D03*
D13*
X152340000Y-113740000D03*
X154880000Y-113740000D03*
X157420000Y-113740000D03*
X159960000Y-113740000D03*
X162500000Y-113740000D03*
X165040000Y-113740000D03*
X167580000Y-113740000D03*
X170120000Y-113740000D03*
X172660000Y-113740000D03*
X175200000Y-113740000D03*
X177740000Y-113740000D03*
X180280000Y-113740000D03*
X182820000Y-113740000D03*
X185360000Y-113740000D03*
X185360000Y-98500000D03*
X182820000Y-98500000D03*
X180280000Y-98500000D03*
X177740000Y-98500000D03*
X175200000Y-98500000D03*
X172660000Y-98500000D03*
X170120000Y-98500000D03*
X167580000Y-98500000D03*
X165040000Y-98500000D03*
X162500000Y-98500000D03*
X159960000Y-98500000D03*
X157420000Y-98500000D03*
X154880000Y-98500000D03*
X152340000Y-98500000D03*
X149800000Y-98500000D03*
%TD*%
D11*
%TO.C,SW4_RT1*%
X131500000Y-96500000D03*
X131500000Y-84000000D03*
X136500000Y-96500000D03*
X136500000Y-84000000D03*
%TD*%
D10*
%TO.C,R1*%
X151260000Y-66960000D03*
X151260000Y-72040000D03*
%TD*%
D11*
%TO.C,SW3_LT1*%
X104500000Y-96500000D03*
X104500000Y-84000000D03*
X109500000Y-96500000D03*
X109500000Y-84000000D03*
%TD*%
D10*
%TO.C,R7*%
X143760000Y-61080000D03*
X143760000Y-56000000D03*
%TD*%
%TO.C,R9*%
X148760000Y-61080000D03*
X148760000Y-56000000D03*
%TD*%
D11*
%TO.C,SW2_DN1*%
X118500000Y-110500000D03*
X118500000Y-98000000D03*
X123500000Y-110500000D03*
X123500000Y-98000000D03*
%TD*%
D14*
%TO.C,J1*%
X136220000Y-64000000D03*
D15*
X138760000Y-64000000D03*
X141300000Y-64000000D03*
X143840000Y-64000000D03*
X146380000Y-64000000D03*
X148920000Y-64000000D03*
X151460000Y-64000000D03*
X154000000Y-64000000D03*
%TD*%
D10*
%TO.C,R10*%
X151260000Y-61080000D03*
X151260000Y-56000000D03*
%TD*%
D11*
%TO.C,SW6_B1*%
X179000000Y-82500000D03*
X179000000Y-70000000D03*
X184000000Y-82500000D03*
X184000000Y-70000000D03*
%TD*%
D10*
%TO.C,R2*%
X148760000Y-66920000D03*
X148760000Y-72000000D03*
%TD*%
%TO.C,R6*%
X141260000Y-61080000D03*
X141260000Y-56000000D03*
%TD*%
%TO.C,R3*%
X146260000Y-66920000D03*
X146260000Y-72000000D03*
%TD*%
%TO.C,R4*%
X143760000Y-66920000D03*
X143760000Y-72000000D03*
%TD*%
M02*
