%TF.GenerationSoftware,KiCad,Pcbnew,9.0.6*%
%TF.CreationDate,2026-06-21T20:46:30+02:00*%
%TF.ProjectId,test,74657374-2e6b-4696-9361-645f70636258,rev?*%
%TF.SameCoordinates,Original*%
%TF.FileFunction,Copper,L2,Bot*%
%TF.FilePolarity,Positive*%
%FSLAX46Y46*%
G04 Gerber Fmt 4.6, Leading zero omitted, Abs format (unit mm)*
G04 Created by KiCad (PCBNEW 9.0.6) date 2026-06-21 20:46:30*
%MOMM*%
%LPD*%
G01*
G04 APERTURE LIST*
%TA.AperFunction,ComponentPad*%
%ADD10C,1.400000*%
%TD*%
%TA.AperFunction,ComponentPad*%
%ADD11O,1.900000X3.200000*%
%TD*%
%TA.AperFunction,ComponentPad*%
%ADD12R,1.600000X1.600000*%
%TD*%
%TA.AperFunction,ComponentPad*%
%ADD13O,1.600000X1.600000*%
%TD*%
%TA.AperFunction,ComponentPad*%
%ADD14R,1.700000X1.700000*%
%TD*%
%TA.AperFunction,ComponentPad*%
%ADD15C,1.700000*%
%TD*%
%TA.AperFunction,ViaPad*%
%ADD16C,0.600000*%
%TD*%
%TA.AperFunction,Conductor*%
%ADD17C,0.200000*%
%TD*%
G04 APERTURE END LIST*
D10*
%TO.P,R5,1*%
%TO.N,Net-(J1-Pin_3)*%
X141260000Y-66920000D03*
%TO.P,R5,2*%
%TO.N,Net-(A1-D10)*%
X141260000Y-72000000D03*
%TD*%
D11*
%TO.P,SW5_A1,1,1*%
%TO.N,0*%
X164500000Y-91000000D03*
X164500000Y-78500000D03*
%TO.P,SW5_A1,2,2*%
%TO.N,Net-(A1-D6)*%
X169500000Y-91000000D03*
X169500000Y-78500000D03*
%TD*%
%TO.P,SW1_UP1,1,1*%
%TO.N,0*%
X118000000Y-82500000D03*
X118000000Y-70000000D03*
%TO.P,SW1_UP1,2,2*%
%TO.N,Net-(A1-D2)*%
X123000000Y-82500000D03*
X123000000Y-70000000D03*
%TD*%
D10*
%TO.P,R8,1*%
%TO.N,Net-(J1-Pin_5)*%
X146260000Y-61080000D03*
%TO.P,R8,2*%
%TO.N,0*%
X146260000Y-56000000D03*
%TD*%
D12*
%TO.P,A1,1,D1/TX*%
%TO.N,unconnected-(A1-D1{slash}TX-Pad1)*%
X149800000Y-113740000D03*
D13*
%TO.P,A1,2,D0/RX*%
%TO.N,unconnected-(A1-D0{slash}RX-Pad2)*%
X152340000Y-113740000D03*
%TO.P,A1,3,~{RESET}*%
%TO.N,unconnected-(A1-~{RESET}-Pad3)*%
X154880000Y-113740000D03*
%TO.P,A1,4,GND*%
%TO.N,0*%
X157420000Y-113740000D03*
%TO.P,A1,5,D2*%
%TO.N,Net-(A1-D2)*%
X159960000Y-113740000D03*
%TO.P,A1,6,D3*%
%TO.N,Net-(A1-D3)*%
X162500000Y-113740000D03*
%TO.P,A1,7,D4*%
%TO.N,Net-(A1-D4)*%
X165040000Y-113740000D03*
%TO.P,A1,8,D5*%
%TO.N,Net-(A1-D5)*%
X167580000Y-113740000D03*
%TO.P,A1,9,D6*%
%TO.N,Net-(A1-D6)*%
X170120000Y-113740000D03*
%TO.P,A1,10,D7*%
%TO.N,Net-(A1-D7)*%
X172660000Y-113740000D03*
%TO.P,A1,11,D8*%
%TO.N,Net-(A1-D8)*%
X175200000Y-113740000D03*
%TO.P,A1,12,D9*%
%TO.N,Net-(A1-D9)*%
X177740000Y-113740000D03*
%TO.P,A1,13,D10*%
%TO.N,Net-(A1-D10)*%
X180280000Y-113740000D03*
%TO.P,A1,14,D11*%
%TO.N,Net-(A1-D11)*%
X182820000Y-113740000D03*
%TO.P,A1,15,D12*%
%TO.N,unconnected-(A1-D12-Pad15)*%
X185360000Y-113740000D03*
%TO.P,A1,16,D13*%
%TO.N,Net-(A1-D13)*%
X185360000Y-98500000D03*
%TO.P,A1,17,3V3*%
%TO.N,Net-(A1-3V3)*%
X182820000Y-98500000D03*
%TO.P,A1,18,AREF*%
%TO.N,unconnected-(A1-AREF-Pad18)*%
X180280000Y-98500000D03*
%TO.P,A1,19,A0*%
%TO.N,unconnected-(A1-A0-Pad19)*%
X177740000Y-98500000D03*
%TO.P,A1,20,A1*%
%TO.N,unconnected-(A1-A1-Pad20)*%
X175200000Y-98500000D03*
%TO.P,A1,21,A2*%
%TO.N,unconnected-(A1-A2-Pad21)*%
X172660000Y-98500000D03*
%TO.P,A1,22,A3*%
%TO.N,unconnected-(A1-A3-Pad22)*%
X170120000Y-98500000D03*
%TO.P,A1,23,A4*%
%TO.N,unconnected-(A1-A4-Pad23)*%
X167580000Y-98500000D03*
%TO.P,A1,24,A5*%
%TO.N,unconnected-(A1-A5-Pad24)*%
X165040000Y-98500000D03*
%TO.P,A1,25,A6*%
%TO.N,unconnected-(A1-A6-Pad25)*%
X162500000Y-98500000D03*
%TO.P,A1,26,A7*%
%TO.N,unconnected-(A1-A7-Pad26)*%
X159960000Y-98500000D03*
%TO.P,A1,27,+5V*%
%TO.N,Net-(A1-+5V)*%
X157420000Y-98500000D03*
%TO.P,A1,28,~{RESET}*%
%TO.N,unconnected-(A1-~{RESET}-Pad28)*%
X154880000Y-98500000D03*
%TO.P,A1,29,GND*%
%TO.N,0*%
X152340000Y-98500000D03*
%TO.P,A1,30,VIN*%
%TO.N,unconnected-(A1-VIN-Pad30)*%
X149800000Y-98500000D03*
%TD*%
D11*
%TO.P,SW4_RT1,1,1*%
%TO.N,0*%
X131500000Y-96500000D03*
X131500000Y-84000000D03*
%TO.P,SW4_RT1,2,2*%
%TO.N,Net-(A1-D5)*%
X136500000Y-96500000D03*
X136500000Y-84000000D03*
%TD*%
D10*
%TO.P,R1,1*%
%TO.N,Net-(J1-Pin_7)*%
X151260000Y-66960000D03*
%TO.P,R1,2*%
%TO.N,Net-(A1-D13)*%
X151260000Y-72040000D03*
%TD*%
D11*
%TO.P,SW3_LT1,1,1*%
%TO.N,0*%
X104500000Y-96500000D03*
X104500000Y-84000000D03*
%TO.P,SW3_LT1,2,2*%
%TO.N,Net-(A1-D4)*%
X109500000Y-96500000D03*
X109500000Y-84000000D03*
%TD*%
D10*
%TO.P,R7,1*%
%TO.N,Net-(J1-Pin_4)*%
X143760000Y-61080000D03*
%TO.P,R7,2*%
%TO.N,0*%
X143760000Y-56000000D03*
%TD*%
%TO.P,R9,1*%
%TO.N,Net-(J1-Pin_6)*%
X148760000Y-61080000D03*
%TO.P,R9,2*%
%TO.N,0*%
X148760000Y-56000000D03*
%TD*%
D11*
%TO.P,SW2_DN1,1,1*%
%TO.N,0*%
X118500000Y-110500000D03*
X118500000Y-98000000D03*
%TO.P,SW2_DN1,2,2*%
%TO.N,Net-(A1-D3)*%
X123500000Y-110500000D03*
X123500000Y-98000000D03*
%TD*%
D14*
%TO.P,J1,1,Pin_1*%
%TO.N,Net-(A1-+5V)*%
X136220000Y-64000000D03*
D15*
%TO.P,J1,2,Pin_2*%
%TO.N,0*%
X138760000Y-64000000D03*
%TO.P,J1,3,Pin_3*%
%TO.N,Net-(J1-Pin_3)*%
X141300000Y-64000000D03*
%TO.P,J1,4,Pin_4*%
%TO.N,Net-(J1-Pin_4)*%
X143840000Y-64000000D03*
%TO.P,J1,5,Pin_5*%
%TO.N,Net-(J1-Pin_5)*%
X146380000Y-64000000D03*
%TO.P,J1,6,Pin_6*%
%TO.N,Net-(J1-Pin_6)*%
X148920000Y-64000000D03*
%TO.P,J1,7,Pin_7*%
%TO.N,Net-(J1-Pin_7)*%
X151460000Y-64000000D03*
%TO.P,J1,8,Pin_8*%
%TO.N,Net-(A1-3V3)*%
X154000000Y-64000000D03*
%TD*%
D10*
%TO.P,R10,1*%
%TO.N,Net-(J1-Pin_7)*%
X151260000Y-61080000D03*
%TO.P,R10,2*%
%TO.N,0*%
X151260000Y-56000000D03*
%TD*%
D11*
%TO.P,SW6_B1,1,1*%
%TO.N,0*%
X179000000Y-82500000D03*
X179000000Y-70000000D03*
%TO.P,SW6_B1,2,2*%
%TO.N,Net-(A1-D7)*%
X184000000Y-82500000D03*
X184000000Y-70000000D03*
%TD*%
D10*
%TO.P,R2,1*%
%TO.N,Net-(J1-Pin_6)*%
X148760000Y-66920000D03*
%TO.P,R2,2*%
%TO.N,Net-(A1-D11)*%
X148760000Y-72000000D03*
%TD*%
%TO.P,R6,1*%
%TO.N,Net-(J1-Pin_3)*%
X141260000Y-61080000D03*
%TO.P,R6,2*%
%TO.N,0*%
X141260000Y-56000000D03*
%TD*%
%TO.P,R3,1*%
%TO.N,Net-(J1-Pin_5)*%
X146260000Y-66920000D03*
%TO.P,R3,2*%
%TO.N,Net-(A1-D8)*%
X146260000Y-72000000D03*
%TD*%
%TO.P,R4,1*%
%TO.N,Net-(J1-Pin_4)*%
X143760000Y-66920000D03*
%TO.P,R4,2*%
%TO.N,Net-(A1-D9)*%
X143760000Y-72000000D03*
%TD*%
D16*
%TO.N,Net-(A1-D8)*%
X173930000Y-88875000D03*
%TD*%
D17*
%TO.N,0*%
X157420000Y-104681700D02*
X157420000Y-113740000D01*
X152340000Y-98500000D02*
X152340000Y-99601700D01*
X164500000Y-78500000D02*
X164500000Y-91000000D01*
X138760000Y-58500000D02*
X141260000Y-56000000D01*
X164500000Y-91000000D02*
X164500000Y-92901700D01*
X161230000Y-96171700D02*
X164500000Y-92901700D01*
X131500000Y-84000000D02*
X131500000Y-96500000D01*
X152340000Y-99601700D02*
X156391900Y-103653500D01*
X118500000Y-96098300D02*
X118000000Y-95598300D01*
X156391900Y-103653500D02*
X157420000Y-104681700D01*
X118000000Y-95598300D02*
X118000000Y-82500000D01*
X161230000Y-98815400D02*
X161230000Y-96171700D01*
X118000000Y-70000000D02*
X118000000Y-82500000D01*
X104500000Y-84000000D02*
X104500000Y-96500000D01*
X118500000Y-98000000D02*
X118500000Y-110500000D01*
X138760000Y-64000000D02*
X138760000Y-58500000D01*
X118500000Y-98000000D02*
X118500000Y-96098300D01*
X156391900Y-103653500D02*
X161230000Y-98815400D01*
%TO.N,Net-(A1-D4)*%
X109500000Y-84000000D02*
X109500000Y-96500000D01*
%TO.N,Net-(A1-D8)*%
X175200000Y-113740000D02*
X175200000Y-112638300D01*
X173930000Y-111368300D02*
X173930000Y-88875000D01*
X175200000Y-112638300D02*
X173930000Y-111368300D01*
%TO.N,Net-(A1-+5V)*%
X136220000Y-64000000D02*
X136220000Y-76198300D01*
X136220000Y-76198300D02*
X157420000Y-97398300D01*
X157420000Y-98500000D02*
X157420000Y-97398300D01*
%TO.N,Net-(A1-D6)*%
X169500000Y-91000000D02*
X169500000Y-92901700D01*
X170120000Y-113740000D02*
X170120000Y-112638300D01*
X169500000Y-78500000D02*
X169500000Y-91000000D01*
X171231100Y-111527200D02*
X171231100Y-94632800D01*
X170120000Y-112638300D02*
X171231100Y-111527200D01*
X171231100Y-94632800D02*
X169500000Y-92901700D01*
%TO.N,Net-(A1-D9)*%
X169356800Y-75905700D02*
X176143700Y-82692600D01*
X176143700Y-82692600D02*
X176143700Y-82926000D01*
X147665700Y-75905700D02*
X169356800Y-75905700D01*
X176470000Y-83252300D02*
X176470000Y-111368300D01*
X176470000Y-111368300D02*
X177740000Y-112638300D01*
X177740000Y-113740000D02*
X177740000Y-112638300D01*
X176143700Y-82926000D02*
X176470000Y-83252300D01*
X143760000Y-72000000D02*
X147665700Y-75905700D01*
%TO.N,Net-(A1-D2)*%
X123000000Y-70000000D02*
X123000000Y-82500000D01*
X123000000Y-90540000D02*
X147357100Y-114897100D01*
X157929500Y-114897100D02*
X158858300Y-113968300D01*
X147357100Y-114897100D02*
X157929500Y-114897100D01*
X158858300Y-113968300D02*
X158858300Y-113740000D01*
X159960000Y-113740000D02*
X158858300Y-113740000D01*
X123000000Y-82500000D02*
X123000000Y-90540000D01*
%TO.N,Net-(A1-D11)*%
X151234600Y-74474600D02*
X148760000Y-72000000D01*
X180251700Y-81331500D02*
X179518500Y-80598300D01*
X170808900Y-74474600D02*
X151234600Y-74474600D01*
X180251700Y-85134900D02*
X180251700Y-81331500D01*
X181550000Y-86433200D02*
X180251700Y-85134900D01*
X181550000Y-111368300D02*
X181550000Y-86433200D01*
X179518500Y-80598300D02*
X176932600Y-80598300D01*
X176932600Y-80598300D02*
X170808900Y-74474600D01*
X182820000Y-113740000D02*
X182820000Y-112638300D01*
X182820000Y-112638300D02*
X181550000Y-111368300D01*
%TO.N,Net-(A1-3V3)*%
X163488200Y-64000000D02*
X154000000Y-64000000D01*
X182820000Y-98500000D02*
X182820000Y-83869400D01*
X182820000Y-83869400D02*
X180653400Y-81702800D01*
X180653400Y-81165200D02*
X163488200Y-64000000D01*
X180653400Y-81702800D02*
X180653400Y-81165200D01*
%TO.N,Net-(A1-D3)*%
X123500000Y-98000000D02*
X123500000Y-110500000D01*
%TO.N,Net-(A1-D7)*%
X173761700Y-113740000D02*
X173761700Y-113877700D01*
X183921700Y-102032900D02*
X186490800Y-99463800D01*
X172660000Y-113740000D02*
X173761700Y-113740000D01*
X183921700Y-114232400D02*
X183921700Y-102032900D01*
X186490800Y-86892500D02*
X184000000Y-84401700D01*
X184000000Y-70000000D02*
X184000000Y-82500000D01*
X173761700Y-113877700D02*
X174780300Y-114896300D01*
X186490800Y-99463800D02*
X186490800Y-86892500D01*
X184000000Y-82500000D02*
X184000000Y-84401700D01*
X183257800Y-114896300D02*
X183921700Y-114232400D01*
X174780300Y-114896300D02*
X183257800Y-114896300D01*
%TO.N,Net-(A1-D10)*%
X144234000Y-70982800D02*
X145010000Y-71758800D01*
X178925000Y-84905900D02*
X178925000Y-111283300D01*
X180280000Y-113740000D02*
X180280000Y-112638300D01*
X141260000Y-72000000D02*
X142277200Y-70982800D01*
X142277200Y-70982800D02*
X144234000Y-70982800D01*
X169037900Y-75018800D02*
X178925000Y-84905900D01*
X178925000Y-111283300D02*
X180280000Y-112638300D01*
X147837200Y-75018800D02*
X169037900Y-75018800D01*
X145010000Y-71758800D02*
X145010000Y-72191600D01*
X145010000Y-72191600D02*
X147837200Y-75018800D01*
%TO.N,Net-(A1-D5)*%
X136500000Y-84000000D02*
X136500000Y-96500000D01*
%TO.N,Net-(J1-Pin_5)*%
X146260000Y-63880000D02*
X146260000Y-61080000D01*
X146380000Y-64000000D02*
X146260000Y-63880000D01*
X146380000Y-64000000D02*
X146260000Y-64120000D01*
X146260000Y-64120000D02*
X146260000Y-66920000D01*
%TO.N,Net-(J1-Pin_7)*%
X151460000Y-64000000D02*
X151260000Y-64200000D01*
X151460000Y-64000000D02*
X151260000Y-63800000D01*
X151260000Y-63800000D02*
X151260000Y-61080000D01*
X151260000Y-64200000D02*
X151260000Y-66960000D01*
%TO.N,Net-(J1-Pin_3)*%
X141300000Y-64000000D02*
X141260000Y-63960000D01*
X141260000Y-63960000D02*
X141260000Y-61080000D01*
X141260000Y-64040000D02*
X141260000Y-66920000D01*
X141300000Y-64000000D02*
X141260000Y-64040000D01*
%TO.N,Net-(J1-Pin_6)*%
X148760000Y-63840000D02*
X148760000Y-61080000D01*
X148920000Y-64000000D02*
X148760000Y-64160000D01*
X148920000Y-64000000D02*
X148760000Y-63840000D01*
X148760000Y-64160000D02*
X148760000Y-66920000D01*
%TO.N,Net-(J1-Pin_4)*%
X143760000Y-63920000D02*
X143760000Y-61080000D01*
X143840000Y-64000000D02*
X143760000Y-63920000D01*
X143840000Y-64000000D02*
X143760000Y-64080000D01*
X143760000Y-64080000D02*
X143760000Y-66920000D01*
%TD*%
M02*
