%TF.GenerationSoftware,KiCad,Pcbnew,9.0.6*%
%TF.CreationDate,2026-06-21T20:46:30+02:00*%
%TF.ProjectId,test,74657374-2e6b-4696-9361-645f70636258,rev?*%
%TF.SameCoordinates,Original*%
%TF.FileFunction,Legend,Top*%
%TF.FilePolarity,Positive*%
%FSLAX46Y46*%
G04 Gerber Fmt 4.6, Leading zero omitted, Abs format (unit mm)*
G04 Created by KiCad (PCBNEW 9.0.6) date 2026-06-21 20:46:30*
%MOMM*%
%LPD*%
G01*
G04 APERTURE LIST*
%ADD10C,0.150000*%
%ADD11C,0.120000*%
G04 APERTURE END LIST*
D10*
X183261904Y-51202438D02*
X183166666Y-51154819D01*
X183166666Y-51154819D02*
X183023809Y-51154819D01*
X183023809Y-51154819D02*
X182880952Y-51202438D01*
X182880952Y-51202438D02*
X182785714Y-51297676D01*
X182785714Y-51297676D02*
X182738095Y-51392914D01*
X182738095Y-51392914D02*
X182690476Y-51583390D01*
X182690476Y-51583390D02*
X182690476Y-51726247D01*
X182690476Y-51726247D02*
X182738095Y-51916723D01*
X182738095Y-51916723D02*
X182785714Y-52011961D01*
X182785714Y-52011961D02*
X182880952Y-52107200D01*
X182880952Y-52107200D02*
X183023809Y-52154819D01*
X183023809Y-52154819D02*
X183119047Y-52154819D01*
X183119047Y-52154819D02*
X183261904Y-52107200D01*
X183261904Y-52107200D02*
X183309523Y-52059580D01*
X183309523Y-52059580D02*
X183309523Y-51726247D01*
X183309523Y-51726247D02*
X183119047Y-51726247D01*
X183738095Y-52154819D02*
X183738095Y-51154819D01*
X183738095Y-51154819D02*
X184309523Y-52154819D01*
X184309523Y-52154819D02*
X184309523Y-51154819D01*
X184785714Y-52154819D02*
X184785714Y-51154819D01*
X184785714Y-51154819D02*
X185023809Y-51154819D01*
X185023809Y-51154819D02*
X185166666Y-51202438D01*
X185166666Y-51202438D02*
X185261904Y-51297676D01*
X185261904Y-51297676D02*
X185309523Y-51392914D01*
X185309523Y-51392914D02*
X185357142Y-51583390D01*
X185357142Y-51583390D02*
X185357142Y-51726247D01*
X185357142Y-51726247D02*
X185309523Y-51916723D01*
X185309523Y-51916723D02*
X185261904Y-52011961D01*
X185261904Y-52011961D02*
X185166666Y-52107200D01*
X185166666Y-52107200D02*
X185023809Y-52154819D01*
X185023809Y-52154819D02*
X184785714Y-52154819D01*
X186309523Y-52154819D02*
X185738095Y-52154819D01*
X186023809Y-52154819D02*
X186023809Y-51154819D01*
X186023809Y-51154819D02*
X185928571Y-51297676D01*
X185928571Y-51297676D02*
X185833333Y-51392914D01*
X185833333Y-51392914D02*
X185738095Y-51440533D01*
X143634819Y-69626666D02*
X143158628Y-69959999D01*
X143634819Y-70198094D02*
X142634819Y-70198094D01*
X142634819Y-70198094D02*
X142634819Y-69817142D01*
X142634819Y-69817142D02*
X142682438Y-69721904D01*
X142682438Y-69721904D02*
X142730057Y-69674285D01*
X142730057Y-69674285D02*
X142825295Y-69626666D01*
X142825295Y-69626666D02*
X142968152Y-69626666D01*
X142968152Y-69626666D02*
X143063390Y-69674285D01*
X143063390Y-69674285D02*
X143111009Y-69721904D01*
X143111009Y-69721904D02*
X143158628Y-69817142D01*
X143158628Y-69817142D02*
X143158628Y-70198094D01*
X142634819Y-68721904D02*
X142634819Y-69198094D01*
X142634819Y-69198094D02*
X143111009Y-69245713D01*
X143111009Y-69245713D02*
X143063390Y-69198094D01*
X143063390Y-69198094D02*
X143015771Y-69102856D01*
X143015771Y-69102856D02*
X143015771Y-68864761D01*
X143015771Y-68864761D02*
X143063390Y-68769523D01*
X143063390Y-68769523D02*
X143111009Y-68721904D01*
X143111009Y-68721904D02*
X143206247Y-68674285D01*
X143206247Y-68674285D02*
X143444342Y-68674285D01*
X143444342Y-68674285D02*
X143539580Y-68721904D01*
X143539580Y-68721904D02*
X143587200Y-68769523D01*
X143587200Y-68769523D02*
X143634819Y-68864761D01*
X143634819Y-68864761D02*
X143634819Y-69102856D01*
X143634819Y-69102856D02*
X143587200Y-69198094D01*
X143587200Y-69198094D02*
X143539580Y-69245713D01*
X159497200Y-87789047D02*
X159544819Y-87646190D01*
X159544819Y-87646190D02*
X159544819Y-87408095D01*
X159544819Y-87408095D02*
X159497200Y-87312857D01*
X159497200Y-87312857D02*
X159449580Y-87265238D01*
X159449580Y-87265238D02*
X159354342Y-87217619D01*
X159354342Y-87217619D02*
X159259104Y-87217619D01*
X159259104Y-87217619D02*
X159163866Y-87265238D01*
X159163866Y-87265238D02*
X159116247Y-87312857D01*
X159116247Y-87312857D02*
X159068628Y-87408095D01*
X159068628Y-87408095D02*
X159021009Y-87598571D01*
X159021009Y-87598571D02*
X158973390Y-87693809D01*
X158973390Y-87693809D02*
X158925771Y-87741428D01*
X158925771Y-87741428D02*
X158830533Y-87789047D01*
X158830533Y-87789047D02*
X158735295Y-87789047D01*
X158735295Y-87789047D02*
X158640057Y-87741428D01*
X158640057Y-87741428D02*
X158592438Y-87693809D01*
X158592438Y-87693809D02*
X158544819Y-87598571D01*
X158544819Y-87598571D02*
X158544819Y-87360476D01*
X158544819Y-87360476D02*
X158592438Y-87217619D01*
X158544819Y-86884285D02*
X159544819Y-86646190D01*
X159544819Y-86646190D02*
X158830533Y-86455714D01*
X158830533Y-86455714D02*
X159544819Y-86265238D01*
X159544819Y-86265238D02*
X158544819Y-86027143D01*
X158544819Y-85170000D02*
X158544819Y-85646190D01*
X158544819Y-85646190D02*
X159021009Y-85693809D01*
X159021009Y-85693809D02*
X158973390Y-85646190D01*
X158973390Y-85646190D02*
X158925771Y-85550952D01*
X158925771Y-85550952D02*
X158925771Y-85312857D01*
X158925771Y-85312857D02*
X158973390Y-85217619D01*
X158973390Y-85217619D02*
X159021009Y-85170000D01*
X159021009Y-85170000D02*
X159116247Y-85122381D01*
X159116247Y-85122381D02*
X159354342Y-85122381D01*
X159354342Y-85122381D02*
X159449580Y-85170000D01*
X159449580Y-85170000D02*
X159497200Y-85217619D01*
X159497200Y-85217619D02*
X159544819Y-85312857D01*
X159544819Y-85312857D02*
X159544819Y-85550952D01*
X159544819Y-85550952D02*
X159497200Y-85646190D01*
X159497200Y-85646190D02*
X159449580Y-85693809D01*
X159640057Y-84931905D02*
X159640057Y-84170000D01*
X159259104Y-83979523D02*
X159259104Y-83503333D01*
X159544819Y-84074761D02*
X158544819Y-83741428D01*
X158544819Y-83741428D02*
X159544819Y-83408095D01*
X159544819Y-82550952D02*
X159544819Y-83122380D01*
X159544819Y-82836666D02*
X158544819Y-82836666D01*
X158544819Y-82836666D02*
X158687676Y-82931904D01*
X158687676Y-82931904D02*
X158782914Y-83027142D01*
X158782914Y-83027142D02*
X158830533Y-83122380D01*
X112997200Y-79884285D02*
X113044819Y-79741428D01*
X113044819Y-79741428D02*
X113044819Y-79503333D01*
X113044819Y-79503333D02*
X112997200Y-79408095D01*
X112997200Y-79408095D02*
X112949580Y-79360476D01*
X112949580Y-79360476D02*
X112854342Y-79312857D01*
X112854342Y-79312857D02*
X112759104Y-79312857D01*
X112759104Y-79312857D02*
X112663866Y-79360476D01*
X112663866Y-79360476D02*
X112616247Y-79408095D01*
X112616247Y-79408095D02*
X112568628Y-79503333D01*
X112568628Y-79503333D02*
X112521009Y-79693809D01*
X112521009Y-79693809D02*
X112473390Y-79789047D01*
X112473390Y-79789047D02*
X112425771Y-79836666D01*
X112425771Y-79836666D02*
X112330533Y-79884285D01*
X112330533Y-79884285D02*
X112235295Y-79884285D01*
X112235295Y-79884285D02*
X112140057Y-79836666D01*
X112140057Y-79836666D02*
X112092438Y-79789047D01*
X112092438Y-79789047D02*
X112044819Y-79693809D01*
X112044819Y-79693809D02*
X112044819Y-79455714D01*
X112044819Y-79455714D02*
X112092438Y-79312857D01*
X112044819Y-78979523D02*
X113044819Y-78741428D01*
X113044819Y-78741428D02*
X112330533Y-78550952D01*
X112330533Y-78550952D02*
X113044819Y-78360476D01*
X113044819Y-78360476D02*
X112044819Y-78122381D01*
X113044819Y-77217619D02*
X113044819Y-77789047D01*
X113044819Y-77503333D02*
X112044819Y-77503333D01*
X112044819Y-77503333D02*
X112187676Y-77598571D01*
X112187676Y-77598571D02*
X112282914Y-77693809D01*
X112282914Y-77693809D02*
X112330533Y-77789047D01*
X113140057Y-77027143D02*
X113140057Y-76265238D01*
X112044819Y-76027142D02*
X112854342Y-76027142D01*
X112854342Y-76027142D02*
X112949580Y-75979523D01*
X112949580Y-75979523D02*
X112997200Y-75931904D01*
X112997200Y-75931904D02*
X113044819Y-75836666D01*
X113044819Y-75836666D02*
X113044819Y-75646190D01*
X113044819Y-75646190D02*
X112997200Y-75550952D01*
X112997200Y-75550952D02*
X112949580Y-75503333D01*
X112949580Y-75503333D02*
X112854342Y-75455714D01*
X112854342Y-75455714D02*
X112044819Y-75455714D01*
X113044819Y-74979523D02*
X112044819Y-74979523D01*
X112044819Y-74979523D02*
X112044819Y-74598571D01*
X112044819Y-74598571D02*
X112092438Y-74503333D01*
X112092438Y-74503333D02*
X112140057Y-74455714D01*
X112140057Y-74455714D02*
X112235295Y-74408095D01*
X112235295Y-74408095D02*
X112378152Y-74408095D01*
X112378152Y-74408095D02*
X112473390Y-74455714D01*
X112473390Y-74455714D02*
X112521009Y-74503333D01*
X112521009Y-74503333D02*
X112568628Y-74598571D01*
X112568628Y-74598571D02*
X112568628Y-74979523D01*
X113044819Y-73455714D02*
X113044819Y-74027142D01*
X113044819Y-73741428D02*
X112044819Y-73741428D01*
X112044819Y-73741428D02*
X112187676Y-73836666D01*
X112187676Y-73836666D02*
X112282914Y-73931904D01*
X112282914Y-73931904D02*
X112330533Y-74027142D01*
X144794819Y-58706666D02*
X144318628Y-59039999D01*
X144794819Y-59278094D02*
X143794819Y-59278094D01*
X143794819Y-59278094D02*
X143794819Y-58897142D01*
X143794819Y-58897142D02*
X143842438Y-58801904D01*
X143842438Y-58801904D02*
X143890057Y-58754285D01*
X143890057Y-58754285D02*
X143985295Y-58706666D01*
X143985295Y-58706666D02*
X144128152Y-58706666D01*
X144128152Y-58706666D02*
X144223390Y-58754285D01*
X144223390Y-58754285D02*
X144271009Y-58801904D01*
X144271009Y-58801904D02*
X144318628Y-58897142D01*
X144318628Y-58897142D02*
X144318628Y-59278094D01*
X144223390Y-58135237D02*
X144175771Y-58230475D01*
X144175771Y-58230475D02*
X144128152Y-58278094D01*
X144128152Y-58278094D02*
X144032914Y-58325713D01*
X144032914Y-58325713D02*
X143985295Y-58325713D01*
X143985295Y-58325713D02*
X143890057Y-58278094D01*
X143890057Y-58278094D02*
X143842438Y-58230475D01*
X143842438Y-58230475D02*
X143794819Y-58135237D01*
X143794819Y-58135237D02*
X143794819Y-57944761D01*
X143794819Y-57944761D02*
X143842438Y-57849523D01*
X143842438Y-57849523D02*
X143890057Y-57801904D01*
X143890057Y-57801904D02*
X143985295Y-57754285D01*
X143985295Y-57754285D02*
X144032914Y-57754285D01*
X144032914Y-57754285D02*
X144128152Y-57801904D01*
X144128152Y-57801904D02*
X144175771Y-57849523D01*
X144175771Y-57849523D02*
X144223390Y-57944761D01*
X144223390Y-57944761D02*
X144223390Y-58135237D01*
X144223390Y-58135237D02*
X144271009Y-58230475D01*
X144271009Y-58230475D02*
X144318628Y-58278094D01*
X144318628Y-58278094D02*
X144413866Y-58325713D01*
X144413866Y-58325713D02*
X144604342Y-58325713D01*
X144604342Y-58325713D02*
X144699580Y-58278094D01*
X144699580Y-58278094D02*
X144747200Y-58230475D01*
X144747200Y-58230475D02*
X144794819Y-58135237D01*
X144794819Y-58135237D02*
X144794819Y-57944761D01*
X144794819Y-57944761D02*
X144747200Y-57849523D01*
X144747200Y-57849523D02*
X144699580Y-57801904D01*
X144699580Y-57801904D02*
X144604342Y-57754285D01*
X144604342Y-57754285D02*
X144413866Y-57754285D01*
X144413866Y-57754285D02*
X144318628Y-57801904D01*
X144318628Y-57801904D02*
X144271009Y-57849523D01*
X144271009Y-57849523D02*
X144223390Y-57944761D01*
X144889104Y-106834285D02*
X144889104Y-106358095D01*
X145174819Y-106929523D02*
X144174819Y-106596190D01*
X144174819Y-106596190D02*
X145174819Y-106262857D01*
X145174819Y-105405714D02*
X145174819Y-105977142D01*
X145174819Y-105691428D02*
X144174819Y-105691428D01*
X144174819Y-105691428D02*
X144317676Y-105786666D01*
X144317676Y-105786666D02*
X144412914Y-105881904D01*
X144412914Y-105881904D02*
X144460533Y-105977142D01*
X184814819Y-107381904D02*
X185624342Y-107381904D01*
X185624342Y-107381904D02*
X185719580Y-107334285D01*
X185719580Y-107334285D02*
X185767200Y-107286666D01*
X185767200Y-107286666D02*
X185814819Y-107191428D01*
X185814819Y-107191428D02*
X185814819Y-107000952D01*
X185814819Y-107000952D02*
X185767200Y-106905714D01*
X185767200Y-106905714D02*
X185719580Y-106858095D01*
X185719580Y-106858095D02*
X185624342Y-106810476D01*
X185624342Y-106810476D02*
X184814819Y-106810476D01*
X185767200Y-106381904D02*
X185814819Y-106239047D01*
X185814819Y-106239047D02*
X185814819Y-106000952D01*
X185814819Y-106000952D02*
X185767200Y-105905714D01*
X185767200Y-105905714D02*
X185719580Y-105858095D01*
X185719580Y-105858095D02*
X185624342Y-105810476D01*
X185624342Y-105810476D02*
X185529104Y-105810476D01*
X185529104Y-105810476D02*
X185433866Y-105858095D01*
X185433866Y-105858095D02*
X185386247Y-105905714D01*
X185386247Y-105905714D02*
X185338628Y-106000952D01*
X185338628Y-106000952D02*
X185291009Y-106191428D01*
X185291009Y-106191428D02*
X185243390Y-106286666D01*
X185243390Y-106286666D02*
X185195771Y-106334285D01*
X185195771Y-106334285D02*
X185100533Y-106381904D01*
X185100533Y-106381904D02*
X185005295Y-106381904D01*
X185005295Y-106381904D02*
X184910057Y-106334285D01*
X184910057Y-106334285D02*
X184862438Y-106286666D01*
X184862438Y-106286666D02*
X184814819Y-106191428D01*
X184814819Y-106191428D02*
X184814819Y-105953333D01*
X184814819Y-105953333D02*
X184862438Y-105810476D01*
X185291009Y-105048571D02*
X185338628Y-104905714D01*
X185338628Y-104905714D02*
X185386247Y-104858095D01*
X185386247Y-104858095D02*
X185481485Y-104810476D01*
X185481485Y-104810476D02*
X185624342Y-104810476D01*
X185624342Y-104810476D02*
X185719580Y-104858095D01*
X185719580Y-104858095D02*
X185767200Y-104905714D01*
X185767200Y-104905714D02*
X185814819Y-105000952D01*
X185814819Y-105000952D02*
X185814819Y-105381904D01*
X185814819Y-105381904D02*
X184814819Y-105381904D01*
X184814819Y-105381904D02*
X184814819Y-105048571D01*
X184814819Y-105048571D02*
X184862438Y-104953333D01*
X184862438Y-104953333D02*
X184910057Y-104905714D01*
X184910057Y-104905714D02*
X185005295Y-104858095D01*
X185005295Y-104858095D02*
X185100533Y-104858095D01*
X185100533Y-104858095D02*
X185195771Y-104905714D01*
X185195771Y-104905714D02*
X185243390Y-104953333D01*
X185243390Y-104953333D02*
X185291009Y-105048571D01*
X185291009Y-105048571D02*
X185291009Y-105381904D01*
X126497200Y-93741428D02*
X126544819Y-93598571D01*
X126544819Y-93598571D02*
X126544819Y-93360476D01*
X126544819Y-93360476D02*
X126497200Y-93265238D01*
X126497200Y-93265238D02*
X126449580Y-93217619D01*
X126449580Y-93217619D02*
X126354342Y-93170000D01*
X126354342Y-93170000D02*
X126259104Y-93170000D01*
X126259104Y-93170000D02*
X126163866Y-93217619D01*
X126163866Y-93217619D02*
X126116247Y-93265238D01*
X126116247Y-93265238D02*
X126068628Y-93360476D01*
X126068628Y-93360476D02*
X126021009Y-93550952D01*
X126021009Y-93550952D02*
X125973390Y-93646190D01*
X125973390Y-93646190D02*
X125925771Y-93693809D01*
X125925771Y-93693809D02*
X125830533Y-93741428D01*
X125830533Y-93741428D02*
X125735295Y-93741428D01*
X125735295Y-93741428D02*
X125640057Y-93693809D01*
X125640057Y-93693809D02*
X125592438Y-93646190D01*
X125592438Y-93646190D02*
X125544819Y-93550952D01*
X125544819Y-93550952D02*
X125544819Y-93312857D01*
X125544819Y-93312857D02*
X125592438Y-93170000D01*
X125544819Y-92836666D02*
X126544819Y-92598571D01*
X126544819Y-92598571D02*
X125830533Y-92408095D01*
X125830533Y-92408095D02*
X126544819Y-92217619D01*
X126544819Y-92217619D02*
X125544819Y-91979524D01*
X125878152Y-91170000D02*
X126544819Y-91170000D01*
X125497200Y-91408095D02*
X126211485Y-91646190D01*
X126211485Y-91646190D02*
X126211485Y-91027143D01*
X126640057Y-90884286D02*
X126640057Y-90122381D01*
X126544819Y-89312857D02*
X126068628Y-89646190D01*
X126544819Y-89884285D02*
X125544819Y-89884285D01*
X125544819Y-89884285D02*
X125544819Y-89503333D01*
X125544819Y-89503333D02*
X125592438Y-89408095D01*
X125592438Y-89408095D02*
X125640057Y-89360476D01*
X125640057Y-89360476D02*
X125735295Y-89312857D01*
X125735295Y-89312857D02*
X125878152Y-89312857D01*
X125878152Y-89312857D02*
X125973390Y-89360476D01*
X125973390Y-89360476D02*
X126021009Y-89408095D01*
X126021009Y-89408095D02*
X126068628Y-89503333D01*
X126068628Y-89503333D02*
X126068628Y-89884285D01*
X125544819Y-89027142D02*
X125544819Y-88455714D01*
X126544819Y-88741428D02*
X125544819Y-88741428D01*
X126544819Y-87598571D02*
X126544819Y-88169999D01*
X126544819Y-87884285D02*
X125544819Y-87884285D01*
X125544819Y-87884285D02*
X125687676Y-87979523D01*
X125687676Y-87979523D02*
X125782914Y-88074761D01*
X125782914Y-88074761D02*
X125830533Y-88169999D01*
X153634819Y-69666666D02*
X153158628Y-69999999D01*
X153634819Y-70238094D02*
X152634819Y-70238094D01*
X152634819Y-70238094D02*
X152634819Y-69857142D01*
X152634819Y-69857142D02*
X152682438Y-69761904D01*
X152682438Y-69761904D02*
X152730057Y-69714285D01*
X152730057Y-69714285D02*
X152825295Y-69666666D01*
X152825295Y-69666666D02*
X152968152Y-69666666D01*
X152968152Y-69666666D02*
X153063390Y-69714285D01*
X153063390Y-69714285D02*
X153111009Y-69761904D01*
X153111009Y-69761904D02*
X153158628Y-69857142D01*
X153158628Y-69857142D02*
X153158628Y-70238094D01*
X153634819Y-68714285D02*
X153634819Y-69285713D01*
X153634819Y-68999999D02*
X152634819Y-68999999D01*
X152634819Y-68999999D02*
X152777676Y-69095237D01*
X152777676Y-69095237D02*
X152872914Y-69190475D01*
X152872914Y-69190475D02*
X152920533Y-69285713D01*
X99497200Y-93646190D02*
X99544819Y-93503333D01*
X99544819Y-93503333D02*
X99544819Y-93265238D01*
X99544819Y-93265238D02*
X99497200Y-93170000D01*
X99497200Y-93170000D02*
X99449580Y-93122381D01*
X99449580Y-93122381D02*
X99354342Y-93074762D01*
X99354342Y-93074762D02*
X99259104Y-93074762D01*
X99259104Y-93074762D02*
X99163866Y-93122381D01*
X99163866Y-93122381D02*
X99116247Y-93170000D01*
X99116247Y-93170000D02*
X99068628Y-93265238D01*
X99068628Y-93265238D02*
X99021009Y-93455714D01*
X99021009Y-93455714D02*
X98973390Y-93550952D01*
X98973390Y-93550952D02*
X98925771Y-93598571D01*
X98925771Y-93598571D02*
X98830533Y-93646190D01*
X98830533Y-93646190D02*
X98735295Y-93646190D01*
X98735295Y-93646190D02*
X98640057Y-93598571D01*
X98640057Y-93598571D02*
X98592438Y-93550952D01*
X98592438Y-93550952D02*
X98544819Y-93455714D01*
X98544819Y-93455714D02*
X98544819Y-93217619D01*
X98544819Y-93217619D02*
X98592438Y-93074762D01*
X98544819Y-92741428D02*
X99544819Y-92503333D01*
X99544819Y-92503333D02*
X98830533Y-92312857D01*
X98830533Y-92312857D02*
X99544819Y-92122381D01*
X99544819Y-92122381D02*
X98544819Y-91884286D01*
X98544819Y-91598571D02*
X98544819Y-90979524D01*
X98544819Y-90979524D02*
X98925771Y-91312857D01*
X98925771Y-91312857D02*
X98925771Y-91170000D01*
X98925771Y-91170000D02*
X98973390Y-91074762D01*
X98973390Y-91074762D02*
X99021009Y-91027143D01*
X99021009Y-91027143D02*
X99116247Y-90979524D01*
X99116247Y-90979524D02*
X99354342Y-90979524D01*
X99354342Y-90979524D02*
X99449580Y-91027143D01*
X99449580Y-91027143D02*
X99497200Y-91074762D01*
X99497200Y-91074762D02*
X99544819Y-91170000D01*
X99544819Y-91170000D02*
X99544819Y-91455714D01*
X99544819Y-91455714D02*
X99497200Y-91550952D01*
X99497200Y-91550952D02*
X99449580Y-91598571D01*
X99640057Y-90789048D02*
X99640057Y-90027143D01*
X99544819Y-89312857D02*
X99544819Y-89789047D01*
X99544819Y-89789047D02*
X98544819Y-89789047D01*
X98544819Y-89122380D02*
X98544819Y-88550952D01*
X99544819Y-88836666D02*
X98544819Y-88836666D01*
X99544819Y-87693809D02*
X99544819Y-88265237D01*
X99544819Y-87979523D02*
X98544819Y-87979523D01*
X98544819Y-87979523D02*
X98687676Y-88074761D01*
X98687676Y-88074761D02*
X98782914Y-88169999D01*
X98782914Y-88169999D02*
X98830533Y-88265237D01*
X142294819Y-58706666D02*
X141818628Y-59039999D01*
X142294819Y-59278094D02*
X141294819Y-59278094D01*
X141294819Y-59278094D02*
X141294819Y-58897142D01*
X141294819Y-58897142D02*
X141342438Y-58801904D01*
X141342438Y-58801904D02*
X141390057Y-58754285D01*
X141390057Y-58754285D02*
X141485295Y-58706666D01*
X141485295Y-58706666D02*
X141628152Y-58706666D01*
X141628152Y-58706666D02*
X141723390Y-58754285D01*
X141723390Y-58754285D02*
X141771009Y-58801904D01*
X141771009Y-58801904D02*
X141818628Y-58897142D01*
X141818628Y-58897142D02*
X141818628Y-59278094D01*
X141294819Y-58373332D02*
X141294819Y-57706666D01*
X141294819Y-57706666D02*
X142294819Y-58135237D01*
X147294819Y-58706666D02*
X146818628Y-59039999D01*
X147294819Y-59278094D02*
X146294819Y-59278094D01*
X146294819Y-59278094D02*
X146294819Y-58897142D01*
X146294819Y-58897142D02*
X146342438Y-58801904D01*
X146342438Y-58801904D02*
X146390057Y-58754285D01*
X146390057Y-58754285D02*
X146485295Y-58706666D01*
X146485295Y-58706666D02*
X146628152Y-58706666D01*
X146628152Y-58706666D02*
X146723390Y-58754285D01*
X146723390Y-58754285D02*
X146771009Y-58801904D01*
X146771009Y-58801904D02*
X146818628Y-58897142D01*
X146818628Y-58897142D02*
X146818628Y-59278094D01*
X147294819Y-58230475D02*
X147294819Y-58039999D01*
X147294819Y-58039999D02*
X147247200Y-57944761D01*
X147247200Y-57944761D02*
X147199580Y-57897142D01*
X147199580Y-57897142D02*
X147056723Y-57801904D01*
X147056723Y-57801904D02*
X146866247Y-57754285D01*
X146866247Y-57754285D02*
X146485295Y-57754285D01*
X146485295Y-57754285D02*
X146390057Y-57801904D01*
X146390057Y-57801904D02*
X146342438Y-57849523D01*
X146342438Y-57849523D02*
X146294819Y-57944761D01*
X146294819Y-57944761D02*
X146294819Y-58135237D01*
X146294819Y-58135237D02*
X146342438Y-58230475D01*
X146342438Y-58230475D02*
X146390057Y-58278094D01*
X146390057Y-58278094D02*
X146485295Y-58325713D01*
X146485295Y-58325713D02*
X146723390Y-58325713D01*
X146723390Y-58325713D02*
X146818628Y-58278094D01*
X146818628Y-58278094D02*
X146866247Y-58230475D01*
X146866247Y-58230475D02*
X146913866Y-58135237D01*
X146913866Y-58135237D02*
X146913866Y-57944761D01*
X146913866Y-57944761D02*
X146866247Y-57849523D01*
X146866247Y-57849523D02*
X146818628Y-57801904D01*
X146818628Y-57801904D02*
X146723390Y-57754285D01*
X113497200Y-107884285D02*
X113544819Y-107741428D01*
X113544819Y-107741428D02*
X113544819Y-107503333D01*
X113544819Y-107503333D02*
X113497200Y-107408095D01*
X113497200Y-107408095D02*
X113449580Y-107360476D01*
X113449580Y-107360476D02*
X113354342Y-107312857D01*
X113354342Y-107312857D02*
X113259104Y-107312857D01*
X113259104Y-107312857D02*
X113163866Y-107360476D01*
X113163866Y-107360476D02*
X113116247Y-107408095D01*
X113116247Y-107408095D02*
X113068628Y-107503333D01*
X113068628Y-107503333D02*
X113021009Y-107693809D01*
X113021009Y-107693809D02*
X112973390Y-107789047D01*
X112973390Y-107789047D02*
X112925771Y-107836666D01*
X112925771Y-107836666D02*
X112830533Y-107884285D01*
X112830533Y-107884285D02*
X112735295Y-107884285D01*
X112735295Y-107884285D02*
X112640057Y-107836666D01*
X112640057Y-107836666D02*
X112592438Y-107789047D01*
X112592438Y-107789047D02*
X112544819Y-107693809D01*
X112544819Y-107693809D02*
X112544819Y-107455714D01*
X112544819Y-107455714D02*
X112592438Y-107312857D01*
X112544819Y-106979523D02*
X113544819Y-106741428D01*
X113544819Y-106741428D02*
X112830533Y-106550952D01*
X112830533Y-106550952D02*
X113544819Y-106360476D01*
X113544819Y-106360476D02*
X112544819Y-106122381D01*
X112640057Y-105789047D02*
X112592438Y-105741428D01*
X112592438Y-105741428D02*
X112544819Y-105646190D01*
X112544819Y-105646190D02*
X112544819Y-105408095D01*
X112544819Y-105408095D02*
X112592438Y-105312857D01*
X112592438Y-105312857D02*
X112640057Y-105265238D01*
X112640057Y-105265238D02*
X112735295Y-105217619D01*
X112735295Y-105217619D02*
X112830533Y-105217619D01*
X112830533Y-105217619D02*
X112973390Y-105265238D01*
X112973390Y-105265238D02*
X113544819Y-105836666D01*
X113544819Y-105836666D02*
X113544819Y-105217619D01*
X113640057Y-105027143D02*
X113640057Y-104265238D01*
X113544819Y-104027142D02*
X112544819Y-104027142D01*
X112544819Y-104027142D02*
X112544819Y-103789047D01*
X112544819Y-103789047D02*
X112592438Y-103646190D01*
X112592438Y-103646190D02*
X112687676Y-103550952D01*
X112687676Y-103550952D02*
X112782914Y-103503333D01*
X112782914Y-103503333D02*
X112973390Y-103455714D01*
X112973390Y-103455714D02*
X113116247Y-103455714D01*
X113116247Y-103455714D02*
X113306723Y-103503333D01*
X113306723Y-103503333D02*
X113401961Y-103550952D01*
X113401961Y-103550952D02*
X113497200Y-103646190D01*
X113497200Y-103646190D02*
X113544819Y-103789047D01*
X113544819Y-103789047D02*
X113544819Y-104027142D01*
X113544819Y-103027142D02*
X112544819Y-103027142D01*
X112544819Y-103027142D02*
X113544819Y-102455714D01*
X113544819Y-102455714D02*
X112544819Y-102455714D01*
X113544819Y-101455714D02*
X113544819Y-102027142D01*
X113544819Y-101741428D02*
X112544819Y-101741428D01*
X112544819Y-101741428D02*
X112687676Y-101836666D01*
X112687676Y-101836666D02*
X112782914Y-101931904D01*
X112782914Y-101931904D02*
X112830533Y-102027142D01*
X133294819Y-64333333D02*
X134009104Y-64333333D01*
X134009104Y-64333333D02*
X134151961Y-64380952D01*
X134151961Y-64380952D02*
X134247200Y-64476190D01*
X134247200Y-64476190D02*
X134294819Y-64619047D01*
X134294819Y-64619047D02*
X134294819Y-64714285D01*
X134294819Y-63333333D02*
X134294819Y-63904761D01*
X134294819Y-63619047D02*
X133294819Y-63619047D01*
X133294819Y-63619047D02*
X133437676Y-63714285D01*
X133437676Y-63714285D02*
X133532914Y-63809523D01*
X133532914Y-63809523D02*
X133580533Y-63904761D01*
X149794819Y-59182857D02*
X149318628Y-59516190D01*
X149794819Y-59754285D02*
X148794819Y-59754285D01*
X148794819Y-59754285D02*
X148794819Y-59373333D01*
X148794819Y-59373333D02*
X148842438Y-59278095D01*
X148842438Y-59278095D02*
X148890057Y-59230476D01*
X148890057Y-59230476D02*
X148985295Y-59182857D01*
X148985295Y-59182857D02*
X149128152Y-59182857D01*
X149128152Y-59182857D02*
X149223390Y-59230476D01*
X149223390Y-59230476D02*
X149271009Y-59278095D01*
X149271009Y-59278095D02*
X149318628Y-59373333D01*
X149318628Y-59373333D02*
X149318628Y-59754285D01*
X149794819Y-58230476D02*
X149794819Y-58801904D01*
X149794819Y-58516190D02*
X148794819Y-58516190D01*
X148794819Y-58516190D02*
X148937676Y-58611428D01*
X148937676Y-58611428D02*
X149032914Y-58706666D01*
X149032914Y-58706666D02*
X149080533Y-58801904D01*
X148794819Y-57611428D02*
X148794819Y-57516190D01*
X148794819Y-57516190D02*
X148842438Y-57420952D01*
X148842438Y-57420952D02*
X148890057Y-57373333D01*
X148890057Y-57373333D02*
X148985295Y-57325714D01*
X148985295Y-57325714D02*
X149175771Y-57278095D01*
X149175771Y-57278095D02*
X149413866Y-57278095D01*
X149413866Y-57278095D02*
X149604342Y-57325714D01*
X149604342Y-57325714D02*
X149699580Y-57373333D01*
X149699580Y-57373333D02*
X149747200Y-57420952D01*
X149747200Y-57420952D02*
X149794819Y-57516190D01*
X149794819Y-57516190D02*
X149794819Y-57611428D01*
X149794819Y-57611428D02*
X149747200Y-57706666D01*
X149747200Y-57706666D02*
X149699580Y-57754285D01*
X149699580Y-57754285D02*
X149604342Y-57801904D01*
X149604342Y-57801904D02*
X149413866Y-57849523D01*
X149413866Y-57849523D02*
X149175771Y-57849523D01*
X149175771Y-57849523D02*
X148985295Y-57801904D01*
X148985295Y-57801904D02*
X148890057Y-57754285D01*
X148890057Y-57754285D02*
X148842438Y-57706666D01*
X148842438Y-57706666D02*
X148794819Y-57611428D01*
X173997200Y-79360475D02*
X174044819Y-79217618D01*
X174044819Y-79217618D02*
X174044819Y-78979523D01*
X174044819Y-78979523D02*
X173997200Y-78884285D01*
X173997200Y-78884285D02*
X173949580Y-78836666D01*
X173949580Y-78836666D02*
X173854342Y-78789047D01*
X173854342Y-78789047D02*
X173759104Y-78789047D01*
X173759104Y-78789047D02*
X173663866Y-78836666D01*
X173663866Y-78836666D02*
X173616247Y-78884285D01*
X173616247Y-78884285D02*
X173568628Y-78979523D01*
X173568628Y-78979523D02*
X173521009Y-79169999D01*
X173521009Y-79169999D02*
X173473390Y-79265237D01*
X173473390Y-79265237D02*
X173425771Y-79312856D01*
X173425771Y-79312856D02*
X173330533Y-79360475D01*
X173330533Y-79360475D02*
X173235295Y-79360475D01*
X173235295Y-79360475D02*
X173140057Y-79312856D01*
X173140057Y-79312856D02*
X173092438Y-79265237D01*
X173092438Y-79265237D02*
X173044819Y-79169999D01*
X173044819Y-79169999D02*
X173044819Y-78931904D01*
X173044819Y-78931904D02*
X173092438Y-78789047D01*
X173044819Y-78455713D02*
X174044819Y-78217618D01*
X174044819Y-78217618D02*
X173330533Y-78027142D01*
X173330533Y-78027142D02*
X174044819Y-77836666D01*
X174044819Y-77836666D02*
X173044819Y-77598571D01*
X173044819Y-76789047D02*
X173044819Y-76979523D01*
X173044819Y-76979523D02*
X173092438Y-77074761D01*
X173092438Y-77074761D02*
X173140057Y-77122380D01*
X173140057Y-77122380D02*
X173282914Y-77217618D01*
X173282914Y-77217618D02*
X173473390Y-77265237D01*
X173473390Y-77265237D02*
X173854342Y-77265237D01*
X173854342Y-77265237D02*
X173949580Y-77217618D01*
X173949580Y-77217618D02*
X173997200Y-77169999D01*
X173997200Y-77169999D02*
X174044819Y-77074761D01*
X174044819Y-77074761D02*
X174044819Y-76884285D01*
X174044819Y-76884285D02*
X173997200Y-76789047D01*
X173997200Y-76789047D02*
X173949580Y-76741428D01*
X173949580Y-76741428D02*
X173854342Y-76693809D01*
X173854342Y-76693809D02*
X173616247Y-76693809D01*
X173616247Y-76693809D02*
X173521009Y-76741428D01*
X173521009Y-76741428D02*
X173473390Y-76789047D01*
X173473390Y-76789047D02*
X173425771Y-76884285D01*
X173425771Y-76884285D02*
X173425771Y-77074761D01*
X173425771Y-77074761D02*
X173473390Y-77169999D01*
X173473390Y-77169999D02*
X173521009Y-77217618D01*
X173521009Y-77217618D02*
X173616247Y-77265237D01*
X174140057Y-76503333D02*
X174140057Y-75741428D01*
X173521009Y-75169999D02*
X173568628Y-75027142D01*
X173568628Y-75027142D02*
X173616247Y-74979523D01*
X173616247Y-74979523D02*
X173711485Y-74931904D01*
X173711485Y-74931904D02*
X173854342Y-74931904D01*
X173854342Y-74931904D02*
X173949580Y-74979523D01*
X173949580Y-74979523D02*
X173997200Y-75027142D01*
X173997200Y-75027142D02*
X174044819Y-75122380D01*
X174044819Y-75122380D02*
X174044819Y-75503332D01*
X174044819Y-75503332D02*
X173044819Y-75503332D01*
X173044819Y-75503332D02*
X173044819Y-75169999D01*
X173044819Y-75169999D02*
X173092438Y-75074761D01*
X173092438Y-75074761D02*
X173140057Y-75027142D01*
X173140057Y-75027142D02*
X173235295Y-74979523D01*
X173235295Y-74979523D02*
X173330533Y-74979523D01*
X173330533Y-74979523D02*
X173425771Y-75027142D01*
X173425771Y-75027142D02*
X173473390Y-75074761D01*
X173473390Y-75074761D02*
X173521009Y-75169999D01*
X173521009Y-75169999D02*
X173521009Y-75503332D01*
X174044819Y-73979523D02*
X174044819Y-74550951D01*
X174044819Y-74265237D02*
X173044819Y-74265237D01*
X173044819Y-74265237D02*
X173187676Y-74360475D01*
X173187676Y-74360475D02*
X173282914Y-74455713D01*
X173282914Y-74455713D02*
X173330533Y-74550951D01*
X151134819Y-69626666D02*
X150658628Y-69959999D01*
X151134819Y-70198094D02*
X150134819Y-70198094D01*
X150134819Y-70198094D02*
X150134819Y-69817142D01*
X150134819Y-69817142D02*
X150182438Y-69721904D01*
X150182438Y-69721904D02*
X150230057Y-69674285D01*
X150230057Y-69674285D02*
X150325295Y-69626666D01*
X150325295Y-69626666D02*
X150468152Y-69626666D01*
X150468152Y-69626666D02*
X150563390Y-69674285D01*
X150563390Y-69674285D02*
X150611009Y-69721904D01*
X150611009Y-69721904D02*
X150658628Y-69817142D01*
X150658628Y-69817142D02*
X150658628Y-70198094D01*
X150230057Y-69245713D02*
X150182438Y-69198094D01*
X150182438Y-69198094D02*
X150134819Y-69102856D01*
X150134819Y-69102856D02*
X150134819Y-68864761D01*
X150134819Y-68864761D02*
X150182438Y-68769523D01*
X150182438Y-68769523D02*
X150230057Y-68721904D01*
X150230057Y-68721904D02*
X150325295Y-68674285D01*
X150325295Y-68674285D02*
X150420533Y-68674285D01*
X150420533Y-68674285D02*
X150563390Y-68721904D01*
X150563390Y-68721904D02*
X151134819Y-69293332D01*
X151134819Y-69293332D02*
X151134819Y-68674285D01*
X139794819Y-58706666D02*
X139318628Y-59039999D01*
X139794819Y-59278094D02*
X138794819Y-59278094D01*
X138794819Y-59278094D02*
X138794819Y-58897142D01*
X138794819Y-58897142D02*
X138842438Y-58801904D01*
X138842438Y-58801904D02*
X138890057Y-58754285D01*
X138890057Y-58754285D02*
X138985295Y-58706666D01*
X138985295Y-58706666D02*
X139128152Y-58706666D01*
X139128152Y-58706666D02*
X139223390Y-58754285D01*
X139223390Y-58754285D02*
X139271009Y-58801904D01*
X139271009Y-58801904D02*
X139318628Y-58897142D01*
X139318628Y-58897142D02*
X139318628Y-59278094D01*
X138794819Y-57849523D02*
X138794819Y-58039999D01*
X138794819Y-58039999D02*
X138842438Y-58135237D01*
X138842438Y-58135237D02*
X138890057Y-58182856D01*
X138890057Y-58182856D02*
X139032914Y-58278094D01*
X139032914Y-58278094D02*
X139223390Y-58325713D01*
X139223390Y-58325713D02*
X139604342Y-58325713D01*
X139604342Y-58325713D02*
X139699580Y-58278094D01*
X139699580Y-58278094D02*
X139747200Y-58230475D01*
X139747200Y-58230475D02*
X139794819Y-58135237D01*
X139794819Y-58135237D02*
X139794819Y-57944761D01*
X139794819Y-57944761D02*
X139747200Y-57849523D01*
X139747200Y-57849523D02*
X139699580Y-57801904D01*
X139699580Y-57801904D02*
X139604342Y-57754285D01*
X139604342Y-57754285D02*
X139366247Y-57754285D01*
X139366247Y-57754285D02*
X139271009Y-57801904D01*
X139271009Y-57801904D02*
X139223390Y-57849523D01*
X139223390Y-57849523D02*
X139175771Y-57944761D01*
X139175771Y-57944761D02*
X139175771Y-58135237D01*
X139175771Y-58135237D02*
X139223390Y-58230475D01*
X139223390Y-58230475D02*
X139271009Y-58278094D01*
X139271009Y-58278094D02*
X139366247Y-58325713D01*
X148634819Y-69626666D02*
X148158628Y-69959999D01*
X148634819Y-70198094D02*
X147634819Y-70198094D01*
X147634819Y-70198094D02*
X147634819Y-69817142D01*
X147634819Y-69817142D02*
X147682438Y-69721904D01*
X147682438Y-69721904D02*
X147730057Y-69674285D01*
X147730057Y-69674285D02*
X147825295Y-69626666D01*
X147825295Y-69626666D02*
X147968152Y-69626666D01*
X147968152Y-69626666D02*
X148063390Y-69674285D01*
X148063390Y-69674285D02*
X148111009Y-69721904D01*
X148111009Y-69721904D02*
X148158628Y-69817142D01*
X148158628Y-69817142D02*
X148158628Y-70198094D01*
X147634819Y-69293332D02*
X147634819Y-68674285D01*
X147634819Y-68674285D02*
X148015771Y-69007618D01*
X148015771Y-69007618D02*
X148015771Y-68864761D01*
X148015771Y-68864761D02*
X148063390Y-68769523D01*
X148063390Y-68769523D02*
X148111009Y-68721904D01*
X148111009Y-68721904D02*
X148206247Y-68674285D01*
X148206247Y-68674285D02*
X148444342Y-68674285D01*
X148444342Y-68674285D02*
X148539580Y-68721904D01*
X148539580Y-68721904D02*
X148587200Y-68769523D01*
X148587200Y-68769523D02*
X148634819Y-68864761D01*
X148634819Y-68864761D02*
X148634819Y-69150475D01*
X148634819Y-69150475D02*
X148587200Y-69245713D01*
X148587200Y-69245713D02*
X148539580Y-69293332D01*
X146134819Y-69626666D02*
X145658628Y-69959999D01*
X146134819Y-70198094D02*
X145134819Y-70198094D01*
X145134819Y-70198094D02*
X145134819Y-69817142D01*
X145134819Y-69817142D02*
X145182438Y-69721904D01*
X145182438Y-69721904D02*
X145230057Y-69674285D01*
X145230057Y-69674285D02*
X145325295Y-69626666D01*
X145325295Y-69626666D02*
X145468152Y-69626666D01*
X145468152Y-69626666D02*
X145563390Y-69674285D01*
X145563390Y-69674285D02*
X145611009Y-69721904D01*
X145611009Y-69721904D02*
X145658628Y-69817142D01*
X145658628Y-69817142D02*
X145658628Y-70198094D01*
X145468152Y-68769523D02*
X146134819Y-68769523D01*
X145087200Y-69007618D02*
X145801485Y-69245713D01*
X145801485Y-69245713D02*
X145801485Y-68626666D01*
X177928572Y-51154819D02*
X178261905Y-52154819D01*
X178261905Y-52154819D02*
X178595238Y-51154819D01*
X178928572Y-52154819D02*
X178928572Y-51154819D01*
X179404762Y-52154819D02*
X179404762Y-51154819D01*
X179404762Y-51154819D02*
X179976190Y-52154819D01*
X179976190Y-52154819D02*
X179976190Y-51154819D01*
X180976190Y-52154819D02*
X180404762Y-52154819D01*
X180690476Y-52154819D02*
X180690476Y-51154819D01*
X180690476Y-51154819D02*
X180595238Y-51297676D01*
X180595238Y-51297676D02*
X180500000Y-51392914D01*
X180500000Y-51392914D02*
X180404762Y-51440533D01*
D11*
%TO.C,R5*%
X140340000Y-67540000D02*
X140340000Y-71380000D01*
X142180000Y-67540000D02*
X142180000Y-71380000D01*
%TO.C,SW5_A1*%
X160890000Y-78640000D02*
X163400000Y-78640000D01*
X160890000Y-90860000D02*
X160890000Y-78640000D01*
X160890000Y-90860000D02*
X163400000Y-90860000D01*
X165700000Y-78640000D02*
X168300000Y-78640000D01*
X165700000Y-90860000D02*
X168300000Y-90860000D01*
X170600000Y-78640000D02*
X173110000Y-78640000D01*
X170600000Y-90860000D02*
X173110000Y-90860000D01*
X173110000Y-78640000D02*
X173110000Y-90860000D01*
X170550000Y-84750000D02*
G75*
G02*
X163450000Y-84750000I-3550000J0D01*
G01*
X163450000Y-84750000D02*
G75*
G02*
X170550000Y-84750000I3550000J0D01*
G01*
%TO.C,SW1_UP1*%
X114390000Y-70140000D02*
X116900000Y-70140000D01*
X114390000Y-82360000D02*
X114390000Y-70140000D01*
X114390000Y-82360000D02*
X116900000Y-82360000D01*
X119200000Y-70140000D02*
X121800000Y-70140000D01*
X119200000Y-82360000D02*
X121800000Y-82360000D01*
X124100000Y-70140000D02*
X126610000Y-70140000D01*
X124100000Y-82360000D02*
X126610000Y-82360000D01*
X126610000Y-70140000D02*
X126610000Y-82360000D01*
X124050000Y-76250000D02*
G75*
G02*
X116950000Y-76250000I-3550000J0D01*
G01*
X116950000Y-76250000D02*
G75*
G02*
X124050000Y-76250000I3550000J0D01*
G01*
%TO.C,R8*%
X145340000Y-60460000D02*
X145340000Y-56620000D01*
X147180000Y-60460000D02*
X147180000Y-56620000D01*
%TO.C,A1*%
X145860000Y-97100000D02*
X145860000Y-115140000D01*
X145860000Y-115140000D02*
X148530000Y-115140000D01*
X148530000Y-99770000D02*
X148530000Y-97100000D01*
X148530000Y-99770000D02*
X186630000Y-99770000D01*
X148530000Y-112470000D02*
X148530000Y-115140000D01*
X151070000Y-112470000D02*
X148530000Y-112470000D01*
X151070000Y-112470000D02*
X151070000Y-115140000D01*
X151070000Y-112470000D02*
X186630000Y-112470000D01*
X151070000Y-115140000D02*
X189300000Y-115140000D01*
X181420000Y-102180000D02*
X191840000Y-102180000D01*
X181420000Y-110060000D02*
X181420000Y-102180000D01*
X186630000Y-99770000D02*
X186630000Y-97100000D01*
X186630000Y-112470000D02*
X186630000Y-115140000D01*
X189300000Y-97100000D02*
X145860000Y-97100000D01*
X189300000Y-97100000D02*
X189300000Y-102180000D01*
X189300000Y-115140000D02*
X189300000Y-110060000D01*
X191840000Y-102180000D02*
X191840000Y-110060000D01*
X191840000Y-110060000D02*
X181420000Y-110060000D01*
%TO.C,SW4_RT1*%
X127890000Y-84140000D02*
X130400000Y-84140000D01*
X127890000Y-96360000D02*
X127890000Y-84140000D01*
X127890000Y-96360000D02*
X130400000Y-96360000D01*
X132700000Y-84140000D02*
X135300000Y-84140000D01*
X132700000Y-96360000D02*
X135300000Y-96360000D01*
X137600000Y-84140000D02*
X140110000Y-84140000D01*
X137600000Y-96360000D02*
X140110000Y-96360000D01*
X140110000Y-84140000D02*
X140110000Y-96360000D01*
X137550000Y-90250000D02*
G75*
G02*
X130450000Y-90250000I-3550000J0D01*
G01*
X130450000Y-90250000D02*
G75*
G02*
X137550000Y-90250000I3550000J0D01*
G01*
%TO.C,R1*%
X150340000Y-67580000D02*
X150340000Y-71420000D01*
X152180000Y-67580000D02*
X152180000Y-71420000D01*
%TO.C,SW3_LT1*%
X100890000Y-84140000D02*
X103400000Y-84140000D01*
X100890000Y-96360000D02*
X100890000Y-84140000D01*
X100890000Y-96360000D02*
X103400000Y-96360000D01*
X105700000Y-84140000D02*
X108300000Y-84140000D01*
X105700000Y-96360000D02*
X108300000Y-96360000D01*
X110600000Y-84140000D02*
X113110000Y-84140000D01*
X110600000Y-96360000D02*
X113110000Y-96360000D01*
X113110000Y-84140000D02*
X113110000Y-96360000D01*
X110550000Y-90250000D02*
G75*
G02*
X103450000Y-90250000I-3550000J0D01*
G01*
X103450000Y-90250000D02*
G75*
G02*
X110550000Y-90250000I3550000J0D01*
G01*
%TO.C,R7*%
X142840000Y-60460000D02*
X142840000Y-56620000D01*
X144680000Y-60460000D02*
X144680000Y-56620000D01*
%TO.C,R9*%
X147840000Y-60460000D02*
X147840000Y-56620000D01*
X149680000Y-60460000D02*
X149680000Y-56620000D01*
%TO.C,SW2_DN1*%
X114890000Y-98140000D02*
X117400000Y-98140000D01*
X114890000Y-110360000D02*
X114890000Y-98140000D01*
X114890000Y-110360000D02*
X117400000Y-110360000D01*
X119700000Y-98140000D02*
X122300000Y-98140000D01*
X119700000Y-110360000D02*
X122300000Y-110360000D01*
X124600000Y-98140000D02*
X127110000Y-98140000D01*
X124600000Y-110360000D02*
X127110000Y-110360000D01*
X127110000Y-98140000D02*
X127110000Y-110360000D01*
X124550000Y-104250000D02*
G75*
G02*
X117450000Y-104250000I-3550000J0D01*
G01*
X117450000Y-104250000D02*
G75*
G02*
X124550000Y-104250000I3550000J0D01*
G01*
%TO.C,J1*%
X134840000Y-65380000D02*
X134840000Y-64000000D01*
X136220000Y-65380000D02*
X134840000Y-65380000D01*
X137490000Y-62620000D02*
X155380000Y-62620000D01*
X137490000Y-65380000D02*
X137490000Y-62620000D01*
X137490000Y-65380000D02*
X155380000Y-65380000D01*
X155380000Y-65380000D02*
X155380000Y-62620000D01*
%TO.C,R10*%
X150340000Y-60460000D02*
X150340000Y-56620000D01*
X152180000Y-60460000D02*
X152180000Y-56620000D01*
%TO.C,SW6_B1*%
X175390000Y-70140000D02*
X177900000Y-70140000D01*
X175390000Y-82360000D02*
X175390000Y-70140000D01*
X175390000Y-82360000D02*
X177900000Y-82360000D01*
X180200000Y-70140000D02*
X182800000Y-70140000D01*
X180200000Y-82360000D02*
X182800000Y-82360000D01*
X185100000Y-70140000D02*
X187610000Y-70140000D01*
X185100000Y-82360000D02*
X187610000Y-82360000D01*
X187610000Y-70140000D02*
X187610000Y-82360000D01*
X185050000Y-76250000D02*
G75*
G02*
X177950000Y-76250000I-3550000J0D01*
G01*
X177950000Y-76250000D02*
G75*
G02*
X185050000Y-76250000I3550000J0D01*
G01*
%TO.C,R2*%
X147840000Y-67540000D02*
X147840000Y-71380000D01*
X149680000Y-67540000D02*
X149680000Y-71380000D01*
%TO.C,R6*%
X140340000Y-60460000D02*
X140340000Y-56620000D01*
X142180000Y-60460000D02*
X142180000Y-56620000D01*
%TO.C,R3*%
X145340000Y-67540000D02*
X145340000Y-71380000D01*
X147180000Y-67540000D02*
X147180000Y-71380000D01*
%TO.C,R4*%
X142840000Y-67540000D02*
X142840000Y-71380000D01*
X144680000Y-67540000D02*
X144680000Y-71380000D01*
%TD*%
M02*
